<svg width="180" height="44" viewBox="0 0 180 44" fill="none" xmlns="http://www.w3.org/2000/svg">
<path d="M35.7212 25.3909V18.4892C38.0621 18.0258 39.8284 15.9432 39.8284 13.4435C39.8284 10.6039 37.5484 8.3019 34.7364 8.3019C33.339 8.3019 32.0728 8.8703 31.1531 9.79101L24.7354 5.75354C24.7588 5.55257 24.771 5.34876 24.771 5.14163C24.771 2.30198 22.4914 0 19.6794 0C16.8675 0 14.5879 2.30198 14.5879 5.14163C14.5879 7.98129 16.8675 10.2833 19.6794 10.2833C21.5713 10.2833 23.2224 9.24104 24.1 7.69425L30.0475 11.4362C29.7886 12.0528 29.6448 12.7314 29.6448 13.4435C29.6448 15.9432 31.4111 18.0258 33.7516 18.4892V25.3909C31.4111 25.8538 29.6448 27.9369 29.6448 30.4365C29.6448 33.2762 31.9249 35.5777 34.7364 35.5777C37.5484 35.5777 39.8284 33.2762 39.8284 30.4365C39.8284 27.9369 38.0621 25.8538 35.7212 25.3909" fill="#FF6000"/>
<path d="M24.7713 21.9401C24.7713 19.1004 22.4917 16.7984 19.6797 16.7984C16.8682 16.7984 14.5882 19.1004 14.5882 21.9401C14.5882 24.4393 16.3545 26.5199 18.695 26.9834V33.8132C17.44 34.0614 16.3503 34.7755 15.6095 35.7695L9.88623 32.169C10.0782 31.6275 10.1826 31.0445 10.1826 30.4363C10.1826 27.9372 8.41678 25.8541 6.07587 25.3907V18.489C8.41678 18.026 10.1826 15.943 10.1826 13.4438C10.1826 10.6037 7.90355 8.30219 5.09156 8.30219C2.27909 8.30219 0 10.6037 0 13.4438C0 15.943 1.76587 18.026 4.10677 18.489V25.3907C1.76587 25.8541 0 27.9372 0 30.4363C0 33.276 2.27909 35.578 5.09156 35.578C6.59425 35.578 7.94522 34.9207 8.87709 33.8747L14.7497 37.5693C14.6444 37.9812 14.5882 38.4134 14.5882 38.8584C14.5882 41.698 16.8682 44 19.6797 44C22.4917 44 24.7713 41.698 24.7713 38.8584C24.7713 36.3592 23.0054 34.2761 20.6645 33.8132V26.9834C23.005 26.5199 24.7713 24.4393 24.7713 21.9401Z" fill="#FF6000"/>
<path d="M130.305 8.65161C130.645 8.65161 130.945 8.73153 131.212 8.89089C131.477 9.05072 131.686 9.25453 131.837 9.50847L131.305 9.92272C131.054 9.53779 130.724 9.34154 130.313 9.34154C130.112 9.34154 129.938 9.39213 129.803 9.49428C129.666 9.59547 129.593 9.74113 129.593 9.92981C129.593 10.0967 129.645 10.2197 129.745 10.3076C129.845 10.3947 130.017 10.5039 130.256 10.6126L130.786 10.8595C131.168 11.0345 131.456 11.2373 131.644 11.4478C131.83 11.6587 131.923 11.9197 131.923 12.2318C131.923 12.646 131.772 12.9808 131.47 13.2343C131.168 13.4887 130.786 13.6121 130.327 13.6121C129.938 13.6121 129.587 13.5185 129.278 13.3364C128.969 13.1544 128.724 12.9009 128.543 12.5732L129.082 12.1599C129.436 12.6683 129.852 12.9222 130.335 12.9222C130.579 12.9222 130.78 12.8645 130.931 12.7411C131.081 12.6167 131.161 12.4574 131.161 12.254C131.161 12.0876 131.112 11.9561 131.003 11.862C130.895 11.767 130.716 11.6587 130.463 11.5428L129.938 11.295C129.587 11.1286 129.313 10.9536 129.119 10.7432C128.925 10.5332 128.831 10.2712 128.831 9.95913C128.831 9.5742 128.975 9.2621 129.263 9.02235C129.55 8.78213 129.903 8.6587 130.327 8.6587L130.305 8.65161Z" fill="#FF6000"/>
<path d="M135.063 13.5394H134.301V8.74533H135.063V13.5394Z" fill="#FF6000"/>
<path d="M139.168 12.8575C139.435 12.8575 139.645 12.7917 139.787 12.6612C139.931 12.5302 140.002 12.3482 140.002 12.1235C140.002 11.8985 139.931 11.7164 139.787 11.5788C139.645 11.4407 139.442 11.375 139.175 11.375H138.526V12.8646H139.175L139.168 12.8575ZM138.526 9.4215V10.7139H138.794C139.033 10.7139 139.212 10.6566 139.342 10.5403C139.47 10.424 139.535 10.2647 139.535 10.0684C139.535 9.87216 139.471 9.71185 139.342 9.59553C139.212 9.4792 139.033 9.4215 138.794 9.4215H138.526ZM139.888 10.9253C140.168 11.0194 140.391 11.1716 140.549 11.3821C140.707 11.5934 140.786 11.8469 140.786 12.1448C140.786 12.552 140.644 12.8858 140.363 13.1473C140.082 13.4093 139.707 13.5394 139.247 13.5394H137.785V8.74576H138.875C139.298 8.74576 139.645 8.86161 139.902 9.10231C140.161 9.34159 140.29 9.64707 140.29 10.024C140.29 10.3947 140.154 10.6926 139.888 10.9172V10.9253Z" fill="#FF6000"/>
<path d="M145.905 9.42858H144.126V10.6567H145.905V11.3244H144.126V12.8423H145.905V13.5322H143.363V8.73865H145.905V9.42858Z" fill="#FF6000"/>
<path d="M149.565 10.998H150.521C150.788 10.998 150.996 10.9252 151.146 10.78C151.298 10.6343 151.37 10.4452 151.37 10.213C151.37 9.97325 151.298 9.78457 151.146 9.63987C150.996 9.49422 150.788 9.42187 150.521 9.42187H149.565V10.998ZM151.788 13.5322L150.435 11.6799H149.565V13.5322H148.803V8.73856H150.535C151.019 8.73856 151.407 8.87711 151.7 9.1457C151.995 9.4143 152.146 9.77038 152.146 10.2059C152.146 10.518 152.067 10.7937 151.909 11.0344C151.751 11.2737 151.528 11.4477 151.24 11.5569L152.665 13.5322H151.788Z" fill="#FF6000"/>
<path d="M155.482 13.5323H154.719V8.73822H155.482V13.5323Z" fill="#FF6000"/>
<path d="M159.515 10.0825L158.725 12.0724H160.299L159.515 10.0825ZM160.58 12.733H158.444L158.106 13.5321H157.293L159.386 8.65863H159.646L161.738 13.5321H160.917L160.58 12.733Z" fill="#FF6000"/>
<path d="M167.271 8.73842V13.6124H167.01L164.121 10.2928V13.5325H163.358V8.65851H163.623L166.508 11.971V8.73842H167.271Z" fill="#FF6000"/>
<path d="M131.946 20.3293H129.658V21.7603H131.542V22.4573H129.658V24.433H128.896V19.6394H131.946V20.3293Z" fill="#FF6000"/>
<path d="M136.8 20.3293H135.064V21.5569H136.8V22.2251H135.064V23.7431H136.8V24.433H134.302V19.6394H136.8V20.3293Z" fill="#FF6000"/>
<path d="M140.048 20.3365V23.7431H140.766C141.32 23.7431 141.759 23.5833 142.083 23.2636C142.406 22.9444 142.573 22.5302 142.573 22.0289C142.573 21.5135 142.415 21.0992 142.089 20.7942C141.766 20.4887 141.327 20.3365 140.774 20.3365H140.048ZM140.78 19.639C141.566 19.639 142.191 19.8574 142.659 20.3001C143.126 20.7436 143.363 21.3177 143.363 22.0289C143.363 22.7335 143.126 23.3071 142.652 23.7578C142.176 24.208 141.55 24.4331 140.774 24.4331H139.285V19.639H140.774H140.78Z" fill="#FF6000"/>
<path d="M148.065 20.3293H146.298V21.5569H148.065V22.2251H146.298V23.7431H148.065V24.433H145.535V19.6394H148.065V20.3293Z" fill="#FF6000"/>
<path d="M151.28 21.8985H152.236C152.503 21.8985 152.71 21.8257 152.861 21.6805C153.013 21.5349 153.085 21.3462 153.085 21.1135C153.085 20.8738 153.012 20.6851 152.861 20.5404C152.71 20.3948 152.503 20.3224 152.236 20.3224H151.28V21.8985ZM153.503 24.4332L152.15 22.5809H151.28V24.4332H150.518V19.6391H152.25C152.733 19.6391 153.122 19.7777 153.415 20.0462C153.71 20.3148 153.861 20.6709 153.861 21.1065C153.861 21.4186 153.782 21.6947 153.624 21.9349C153.466 22.1742 153.242 22.3482 152.954 22.4575L154.379 24.4332H153.503Z" fill="#FF6000"/>
<path d="M157.598 20.983L156.808 22.9729H158.382L157.598 20.983ZM158.663 23.6335H156.527L156.189 24.4332H155.376L157.469 19.5592H157.728L159.821 24.4332H159L158.663 23.6335Z" fill="#FF6000"/>
<path d="M162.247 23.7429H164.419V24.4329H161.484V19.6393H162.247V23.7429Z" fill="#FF6000"/>
<path d="M132.723 33.4379C132.715 34.0622 132.542 34.5563 132.184 34.9195C131.823 35.2831 131.356 35.4642 130.786 35.4642C130.205 35.4642 129.737 35.2831 129.377 34.9195C129.017 34.5563 128.838 34.0622 128.838 33.4379V30.5832H129.601V33.4885C129.601 33.8957 129.715 34.2078 129.938 34.4253C130.161 34.6433 130.449 34.7526 130.802 34.7526C131.147 34.7526 131.427 34.6433 131.651 34.4253C131.874 34.2078 131.981 33.8957 131.981 33.4885V30.5832H132.744L132.723 33.4379Z" fill="#FF6000"/>
<path d="M139.285 30.6267V35.5002H139.025L136.134 32.1811V35.4208H135.372V30.5468H135.637L138.522 33.8593V30.6267H139.285Z" fill="#FF6000"/>
<path d="M142.731 35.4206H141.969V30.6265H142.731V35.4206Z" fill="#FF6000"/>
<path d="M149.315 30.5868L147.222 35.4603H146.962L144.87 30.5868H145.726L147.093 33.9202L148.459 30.5868H149.315Z" fill="#FF6000"/>
<path d="M153.941 31.3169H152.152V32.5445H153.941V33.2127H152.152V34.7306H153.941V35.4206H151.39V30.627H153.941V31.3169Z" fill="#FF6000"/>
<path d="M157.292 32.8861H158.247C158.514 32.8861 158.722 32.8133 158.873 32.6681C159.024 32.5225 159.096 32.3338 159.096 32.1011C159.096 31.8614 159.024 31.6727 158.873 31.528C158.722 31.3823 158.514 31.31 158.247 31.31H157.292V32.8861ZM159.514 35.4207L158.161 33.5685H157.292V35.4207H156.529V30.6267H158.261C158.745 30.6267 159.133 30.7652 159.427 31.0338C159.721 31.3024 159.873 31.6585 159.873 32.094C159.873 32.4061 159.794 32.6818 159.635 32.9225C159.477 33.1618 159.254 33.3358 158.966 33.4451L160.391 35.4207H159.514Z" fill="#FF6000"/>
<path d="M163.707 30.4954C164.046 30.4954 164.346 30.5748 164.614 30.7346C164.879 30.8945 165.087 31.0983 165.239 31.3522L164.707 31.7665C164.455 31.3815 164.125 31.1853 163.714 31.1853C163.514 31.1853 163.34 31.2359 163.204 31.338C163.067 31.4392 162.995 31.5844 162.995 31.7736C162.995 31.9405 163.046 32.0639 163.146 32.1514C163.247 32.2384 163.419 32.3476 163.658 32.4564L164.188 32.7032C164.57 32.8782 164.858 33.0811 165.045 33.2915C165.232 33.5024 165.325 33.7634 165.325 34.0755C165.325 34.4898 165.174 34.8241 164.872 35.0781C164.57 35.3325 164.188 35.4559 163.728 35.4559C163.34 35.4559 162.988 35.3623 162.679 35.1802C162.37 34.9981 162.126 34.7447 161.944 34.417L162.484 34.0037C162.837 34.512 163.253 34.766 163.736 34.766C163.981 34.766 164.181 34.7083 164.333 34.5848C164.483 34.4605 164.562 34.3006 164.562 34.0978C164.562 33.9308 164.513 33.7999 164.404 33.7058C164.297 33.6107 164.118 33.5024 163.865 33.3866L163.34 33.1388C162.988 32.9718 162.714 32.7973 162.521 32.5869C162.326 32.377 162.233 32.115 162.233 31.8029C162.233 31.418 162.377 31.1059 162.665 30.8661C162.952 30.6254 163.305 30.5025 163.728 30.5025L163.707 30.4954Z" fill="#FF6000"/>
<path d="M168.27 35.4206H167.507V30.6265H168.27V35.4206Z" fill="#FF6000"/>
<path d="M173.177 31.3169H172.143V35.4206H171.381V31.3169H170.354V30.627H173.177V31.3169Z" fill="#FF6000"/>
<path d="M176.906 33.4814V35.4207H176.143V33.4885L174.504 30.6266H175.353L176.525 32.7115L177.703 30.6266H178.545L176.906 33.4814Z" fill="#FF6000"/>
<path d="M120.086 35.5005H119.316V8.62851H120.086V35.5005Z" fill="#FF6000"/>
<path d="M51.6714 8.65415C52.1106 8.65415 52.5058 8.75534 52.8659 8.95112C53.226 9.14832 53.5056 9.41597 53.7144 9.75739L53.1403 10.1863C52.7873 9.63444 52.3054 9.35875 51.6943 9.35875C51.204 9.35875 50.7947 9.5252 50.4712 9.86C50.1462 10.1934 49.9813 10.6147 49.9813 11.1231C49.9813 11.6319 50.1462 12.0528 50.4712 12.3871C50.7947 12.7219 51.204 12.8883 51.6943 12.8883C52.3054 12.8883 52.7873 12.6126 53.1403 12.0608L53.7144 12.4892C53.5131 12.8306 53.2331 13.0992 52.873 13.2955C52.5128 13.4913 52.1176 13.5925 51.6788 13.5925C50.9806 13.5925 50.3925 13.3532 49.9092 12.8812C49.4278 12.4093 49.1904 11.8201 49.1904 11.116C49.1904 10.4185 49.4349 9.83068 49.9181 9.35166C50.3991 8.87168 50.9881 8.63193 51.6873 8.63193L51.6714 8.65415Z" fill="#FF6000"/>
<path d="M60.9997 8.63199V13.506H60.2373V10.2081L57.2802 13.5859H57.0146V8.71191H57.7775V12.0022L60.7393 8.63199H60.9997Z" fill="#FF6000"/>
<path d="M65.7063 11.3342V12.8223H66.2996C66.5665 12.8223 66.774 12.758 66.9182 12.6266C67.0624 12.4965 67.1341 12.3145 67.1341 12.0889C67.1341 11.8648 67.0624 11.6827 66.9182 11.5441C66.774 11.407 66.574 11.3413 66.3066 11.3413L65.7063 11.3342ZM67.5242 9.402H65.7138V10.6802H66.3717C66.8391 10.6802 67.2132 10.8107 67.4942 11.0727C67.7738 11.3342 67.918 11.6756 67.918 12.097C67.918 12.5102 67.7827 12.8517 67.5012 13.1136C67.2198 13.3751 66.8461 13.5057 66.3788 13.5057H64.958V8.71207H67.5326L67.5242 9.402Z" fill="#FF6000"/>
<path d="M75.3723 8.62851V13.502H74.6099V10.2046L71.6532 13.5819H71.3877V8.70842H72.15V11.9983L75.1124 8.62851H75.3723Z" fill="#FF6000"/>
<path d="M79.6129 9.35885V10.935H80.1599C80.4268 10.935 80.6342 10.8626 80.778 10.717C80.9222 10.5713 80.9943 10.3826 80.9943 10.1434C80.9943 9.90361 80.9222 9.71446 80.778 9.56928C80.6342 9.42458 80.4268 9.35176 80.1599 9.35176L79.6129 9.35885ZM80.1735 8.66891C80.6567 8.66891 81.0454 8.80699 81.3399 9.07607C81.6335 9.34466 81.7853 9.70074 81.7853 10.1363C81.7853 10.5713 81.6335 10.9274 81.3399 11.204C81.0454 11.4797 80.6567 11.6173 80.1735 11.6173H79.6129V13.4696H78.8506V8.67601H80.1735V8.66891Z" fill="#FF6000"/>
<path d="M86.9057 8.65415C87.3445 8.65415 87.7402 8.75534 88.1003 8.95112C88.4604 9.14832 88.74 9.41597 88.9488 9.75739L88.3747 10.1863C88.0212 9.63444 87.5398 9.35875 86.9287 9.35875C86.4384 9.35875 86.0291 9.5252 85.7055 9.86C85.3806 10.1934 85.2157 10.6147 85.2157 11.1231C85.2157 11.6319 85.3806 12.0528 85.7055 12.3871C86.0291 12.7219 86.4384 12.8883 86.9287 12.8883C87.5398 12.8883 88.0212 12.6126 88.3747 12.0608L88.9488 12.4892C88.747 12.8306 88.4674 13.0992 88.1073 13.2955C87.7472 13.4913 87.3515 13.5925 86.9128 13.5925C86.215 13.5925 85.6269 13.3532 85.1431 12.8812C84.6618 12.4093 84.4248 11.8201 84.4248 11.116C84.4248 10.4185 84.6692 9.83068 85.152 9.35166C85.6334 8.87168 86.2221 8.63193 86.9212 8.63193L86.9057 8.65415Z" fill="#FF6000"/>
<path d="M103.155 8.63199V13.506H102.392V10.2081L99.4354 13.5859H99.1699V8.71191H99.9327V12.0022L102.895 8.63199H103.155Z" fill="#FF6000"/>
<path d="M108.242 8.16719C107.903 8.16719 107.622 8.05842 107.408 7.83381C107.192 7.60824 107.083 7.32451 107.083 6.98404H107.694C107.694 7.16468 107.745 7.31033 107.845 7.41909C107.947 7.52832 108.082 7.57892 108.249 7.57892C108.414 7.57892 108.552 7.52833 108.652 7.41909C108.752 7.31032 108.803 7.16468 108.803 6.98404H109.415C109.415 7.32451 109.305 7.60824 109.091 7.83381C108.875 8.05842 108.594 8.16719 108.256 8.16719H108.242ZM110.314 8.63203V13.506H109.551V10.2081L106.594 13.5855H106.329V8.71195H107.092V12.0023L110.054 8.63203H110.314Z" fill="#FF6000"/>
<path d="M52.1759 23.31C52.6292 23.31 52.9893 23.1937 53.2548 22.9615C53.5198 22.7288 53.657 22.4087 53.657 21.9954C53.657 21.5741 53.5287 21.2464 53.2613 21.0142C52.9963 20.7815 52.6357 20.6657 52.1829 20.6657V23.3171L52.1759 23.31ZM49.9459 22.0025C49.9459 22.4167 50.0832 22.7359 50.3487 22.9681C50.6156 23.2008 50.9743 23.3171 51.4271 23.3171V20.6657C50.9743 20.6657 50.6156 20.7815 50.3487 21.0142C50.0832 21.2464 49.9534 21.5741 49.9534 21.9954L49.9459 22.0025ZM54.4405 21.9732C54.4405 22.5907 54.2335 23.0773 53.8148 23.44C53.3985 23.8032 52.8591 23.9848 52.1895 23.9919V24.6388H51.4271V23.9919C50.7664 23.9849 50.2274 23.7961 49.8092 23.4334C49.3929 23.0702 49.1836 22.5832 49.1836 21.9732C49.1836 21.3627 49.3929 20.8836 49.8092 20.528C50.2274 20.1724 50.7664 19.9904 51.4341 19.9833V19.3799H52.1969V19.9833C52.8661 19.9903 53.4056 20.1724 53.8223 20.528C54.24 20.8836 54.4489 21.3627 54.4489 21.9732H54.4405Z" fill="#FF6000"/>
<path d="M74.2711 20.2476V21.8237H74.761C75.0279 21.8237 75.2358 21.7513 75.3796 21.6057C75.5238 21.4601 75.5954 21.2714 75.5954 21.0316C75.5954 20.7923 75.5238 20.6032 75.3796 20.458C75.2358 20.3133 75.0279 20.2405 74.761 20.2405L74.2711 20.2476ZM74.775 19.5576C75.2583 19.5576 75.6465 19.6957 75.9415 19.9643C76.2351 20.2334 76.3864 20.589 76.3864 21.025C76.3864 21.4601 76.2351 21.8161 75.9415 22.0928C75.6465 22.3685 75.2583 22.5061 74.775 22.5061H74.2711V24.3583H73.5088V19.5647H74.775V19.5576Z" fill="#FF6000"/>
<path d="M79.4138 20.9564L78.6234 22.9463H80.1977L79.4138 20.9564ZM80.4787 23.6069H78.3424L78.0048 24.4066H77.1914L79.2841 19.5326H79.544L81.6363 24.4066H80.8158L80.4787 23.6069Z" fill="#FF6000"/>
<path d="M89.4313 22.1558V23.8118H89.893C90.1726 23.8118 90.3889 23.7319 90.5397 23.5796C90.6905 23.4269 90.7696 23.224 90.7696 22.9762C90.7696 22.7298 90.6904 22.5265 90.5397 22.3738C90.3889 22.2215 90.1726 22.1416 89.893 22.1416L89.4313 22.1558ZM89.4313 21.4583H89.893C90.3889 21.4583 90.7907 21.5968 91.0932 21.8801C91.3952 22.1629 91.5465 22.5265 91.5465 22.9691C91.5465 23.4198 91.3952 23.7825 91.0932 24.0586C90.7907 24.3343 90.3889 24.4729 89.893 24.4729H88.6689V19.6793H89.4313V21.4583Z" fill="#FF6000"/>
<path d="M104.034 24.4133H103.272V19.6192H104.034V24.4133ZM100.517 22.0891V23.7456H101.032C101.311 23.7456 101.527 23.6657 101.679 23.5134C101.829 23.3607 101.908 23.1573 101.908 22.91C101.908 22.6632 101.829 22.4603 101.679 22.3076C101.527 22.1548 101.311 22.0754 101.032 22.0754L100.517 22.0891ZM100.517 21.3921H101.032C101.527 21.3921 101.93 21.5301 102.232 21.8134C102.534 22.0962 102.685 22.4603 102.685 22.9029C102.685 23.3536 102.534 23.7163 102.232 23.992C101.93 24.2681 101.527 24.4067 101.032 24.4067H99.7539V19.6126H100.517V21.3921Z" fill="#FF6000"/>
<path d="M108.242 19.0677C107.903 19.0677 107.622 18.9589 107.408 18.7343C107.192 18.5088 107.083 18.225 107.083 17.8846H107.694C107.694 18.0652 107.745 18.2108 107.845 18.3201C107.947 18.4288 108.082 18.4799 108.249 18.4799C108.414 18.4799 108.552 18.4288 108.652 18.3201C108.752 18.2108 108.803 18.0652 108.803 17.8846H109.415C109.415 18.225 109.305 18.5088 109.091 18.7343C108.875 18.9589 108.594 19.0677 108.256 19.0677H108.242ZM110.314 19.5325V24.4065H109.551V21.1091L106.594 24.486H106.329V19.6125H107.092V22.9028L110.054 19.5325H110.314Z" fill="#FF6000"/>
<path d="M53.4918 30.5131L51.8453 34.3704C51.5574 35.0452 51.0535 35.3867 50.3417 35.3867C50.1483 35.3867 49.9465 35.3654 49.7372 35.3143V34.6461C50.0256 34.6683 50.1764 34.6825 50.1905 34.6825C50.6302 34.6825 50.9322 34.5009 51.0975 34.1378L49.4141 30.5131H50.2907L51.5068 33.2809L52.6227 30.5131L53.4918 30.5131Z" fill="#FF6000"/>
<path d="M59.7435 35.3071H58.9807V33.1134H56.5929V35.3071H55.8311V30.513H56.5929V32.4239H58.9807V30.513H59.7435V35.3071Z" fill="#FF6000"/>
<path d="M66.6467 30.4333V35.3072H65.8843V32.0094L62.9276 35.3867H62.6621V30.5132H63.4245V33.8035L66.3868 30.4333H66.6467Z" fill="#FF6000"/>
<path d="M70.8967 34.5846C71.1636 34.5846 71.3729 34.5189 71.5153 34.3884C71.6595 34.2574 71.7311 34.0753 71.7311 33.8512C71.7311 33.6256 71.6594 33.4435 71.5153 33.3064C71.3729 33.1679 71.1711 33.1021 70.9042 33.1021H70.2706V34.5917H70.9042L70.8967 34.5846ZM70.2706 31.1487V32.4415H70.5244C70.7618 32.4415 70.9407 32.3838 71.0709 32.2675C71.1992 32.1512 71.2638 31.9918 71.2638 31.7956C71.2638 31.5998 71.1992 31.439 71.0709 31.3227C70.9407 31.2063 70.7618 31.1487 70.5244 31.1487H70.2706ZM71.6173 32.6524C71.8964 32.7465 72.1193 32.8993 72.2776 33.1092C72.4359 33.3206 72.515 33.5741 72.515 33.8724C72.515 34.2791 72.3727 34.613 72.0917 34.8745C71.8103 35.1365 71.4361 35.267 70.9758 35.267H69.5293V30.4729H70.6035C71.0268 30.4729 71.3729 30.5892 71.6309 30.8295C71.8894 31.0687 72.0191 31.3742 72.0191 31.7511C72.0191 32.1218 71.8824 32.4198 71.6173 32.6444V32.6524Z" fill="#FF6000"/>
<path d="M81.0997 31.0796V32.6557H81.6078C81.8747 32.6557 82.0822 32.5833 82.2259 32.4377C82.3702 32.292 82.4423 32.1033 82.4423 31.8641C82.4423 31.6243 82.3701 31.4352 82.2259 31.29C82.0822 31.1453 81.8747 31.0725 81.6078 31.0725L81.0997 31.0796ZM81.6218 30.3896C82.1046 30.3896 82.4933 30.5277 82.7883 30.7968C83.0819 31.0654 83.2332 31.421 83.2332 31.857C83.2332 32.292 83.0819 32.6481 82.7883 32.9247C82.4933 33.2009 82.1046 33.338 81.6218 33.338H81.0997V35.1903H80.3369V30.3967H81.6218V30.3896Z" fill="#FF6000"/>
<path d="M87.3237 30.4118C87.7625 30.4118 88.1581 30.5129 88.5183 30.7087C88.8784 30.9054 89.1579 31.1736 89.3668 31.515L88.7908 31.9439C88.4396 31.392 87.9577 31.1159 87.3466 31.1159C86.8563 31.1159 86.4471 31.2828 86.1235 31.6171C85.8004 31.9505 85.6337 32.3723 85.6337 32.8807C85.6337 33.3895 85.8004 33.8104 86.1235 34.1447C86.4471 34.479 86.8563 34.6459 87.3466 34.6459C87.9577 34.6459 88.4396 34.3698 88.7908 33.8184L89.3668 34.2468C89.1649 34.5882 88.8854 34.8568 88.5253 35.0531C88.1652 35.2489 87.77 35.3501 87.3307 35.3501C86.633 35.3501 86.0448 35.1108 85.5611 34.6384C85.0802 34.1669 84.8428 33.5777 84.8428 32.8736C84.8428 32.1761 85.0872 31.5878 85.5686 31.1088C86.0514 30.6288 86.6405 30.3895 87.3396 30.3895L87.3237 30.4118Z" fill="#FF6000"/>
<path d="M95.5031 30.4333V35.3072H94.7407V32.0094L91.7841 35.3867H91.5186V30.5132H92.2809V33.8035L95.2432 30.4333H95.5031Z" fill="#FF6000"/>
<path d="M100.474 31.2033H99.4403V35.307H98.6779V31.2033H97.6533V30.5134H100.474V31.2033Z" fill="#FF6000"/>
<path d="M110.314 31.2033H109.28V35.307H108.518V31.2033H107.491V30.5134H110.314V31.2033Z" fill="#FF6000"/>
<path d="M59.3154 23.6474H57.6086V22.1299H59.3154V21.4617H57.6086V20.2336H59.3154V19.5437H56.8467V24.3373H59.3154V23.6474Z" fill="#FF6000"/>
<path d="M71.0221 23.7162H69.1823V22.1982H70.9589V21.5305H69.1823V20.3029H71.0221V19.6125H68.4199V24.4061H71.0221V23.7162Z" fill="#FF6000"/>
<path d="M77.5238 34.5768H75.7106V33.0588H77.4872V32.3906H75.7106V31.163H77.5238V30.4731H74.9482V35.2667H77.5238V34.5768Z" fill="#FF6000"/>
<path d="M105.421 34.6169H103.649V33.099H105.421V32.4308H103.649V31.2032H105.421V30.5132H102.887V35.3068H105.421V34.6169Z" fill="#FF6000"/>
<path d="M96.105 13.5058H95.1629L92.9615 10.956L94.954 8.71173H95.8887L93.9173 10.956L96.105 13.5058ZM92.0146 8.71173H92.777V13.5058H92.0146V8.71173Z" fill="#FF6000"/>
<path d="M93.365 11.288H92.2744V10.6515H93.365V11.288Z" fill="#FF6000"/>
<path d="M97.4593 24.473H96.697V22.2793H94.3092V24.473H93.5469V19.679H94.3092V21.5899H96.697V19.679H97.4593V24.473Z" fill="#FF6000"/>
<path d="M62.5451 23.6474H64.6997V20.2275H63.4166C63.4025 21.8504 63.1146 22.9924 62.5451 23.6474ZM66.0614 23.6474V25.3644H65.2977V24.3387H62.0909V25.3644H61.3271V23.6474H61.6947C62.0188 23.3636 62.2642 22.9565 62.437 22.4254C62.6102 21.8939 62.6964 21.1586 62.6964 20.2275V19.5437H65.4705V23.6549L66.0614 23.6474Z" fill="#FF6000"/>
<path d="M86.4747 19.6685V24.4389H85.7147V20.3561H84.3239C84.3164 21.1018 84.2663 21.7388 84.1731 22.2675C84.0805 22.7957 83.9442 23.208 83.7648 23.5126C83.5859 23.8166 83.3846 24.0408 83.1626 24.1859C82.9402 24.3302 82.6751 24.4247 82.374 24.4611V23.7443C82.7828 23.6572 83.0839 23.3532 83.2773 22.8316C83.4712 22.3105 83.5714 21.5142 83.5714 20.436V19.6538L86.4747 19.6685Z" fill="#FF6000"/>
<path d="M18.3466 43.657C16.343 43.0439 14.779 40.8575 14.779 38.6694C14.779 37.4035 14.7073 37.3272 11.8557 35.5594C9.50821 34.104 8.83 33.8231 8.4123 34.1331C6.09824 35.8503 3.57181 35.808 1.80379 34.0226C-0.753134 31.4406 -0.00549144 27.1805 3.24531 25.8089L4.36472 25.3365V21.974V18.6115L2.95412 17.8227C-0.935989 15.6476 -0.545634 10.2266 3.60788 8.74389C7.18632 7.46644 10.8882 11.092 9.78888 14.7974C9.38478 16.1594 7.42627 18.2214 6.53668 18.2214C6.13417 18.2214 6.04445 18.9016 6.04445 21.9531C6.04445 25.0047 6.13416 25.6849 6.53668 25.6849C7.3673 25.6849 9.34075 27.6866 9.75262 28.9468C9.96698 29.6027 10.0533 30.6256 9.94455 31.2198C9.75219 32.2705 9.82587 32.3496 12.6146 34.0864L15.4825 35.8726L16.5586 35.0695C17.1504 34.6279 17.8991 34.1724 18.2225 34.0573C18.7323 33.876 18.8083 33.3849 18.7947 30.3602L18.779 26.8723L17.4055 26.1912C13.8762 24.4413 13.9259 19.485 17.4915 17.6085C19.228 16.6946 21.0067 16.8042 22.5595 17.9207C25.5098 20.0422 25.0812 24.9283 21.8235 26.3097L20.497 26.8723L20.4936 30.3216L20.4902 33.771L21.7455 34.3927C24.237 35.6264 25.204 38.548 23.9818 41.149C23.0702 43.0889 20.3894 44.282 18.3466 43.657H18.3466Z" fill="#FF6000"/>
<path d="M32.675 34.8734C28.9766 33.1353 28.9262 27.6334 32.5945 26.0778L33.921 25.5153L33.9244 21.9365L33.9278 18.3577L32.7393 17.9237C32.0067 17.6562 31.2175 16.981 30.6817 16.1635C29.9496 15.0463 29.8358 14.554 29.96 13.0414L30.1075 11.2457L27.1299 9.42775L24.1523 7.60979L23.245 8.4639C21.9444 9.6883 21.0508 10.0794 19.5539 10.0794C16.0138 10.0794 13.6062 5.7498 15.449 2.69762C17.8391 -1.26096 23.9256 -0.111568 24.4285 4.3933C24.5911 5.85003 24.6446 5.90532 27.7776 7.85265L30.9615 9.83161L32.3975 9.10739C34.2194 8.1885 35.104 8.19611 36.9393 9.14648C40.4929 10.9866 40.5355 15.9632 37.0125 17.71L35.6389 18.3911L35.6233 21.9698L35.6076 25.5486L36.7734 25.9744C40.1581 27.2103 40.5713 32.5607 37.4333 34.5192C35.7902 35.5447 34.3341 35.6531 32.675 34.8734L32.675 34.8734Z" fill="#FF6000"/>
<path d="M4.18819 35.469C1.78693 35.0091 0.046875 32.9137 0.046875 30.482C0.046875 30.1386 0.0892144 29.6495 0.140952 29.3953C0.402345 28.1109 1.20688 26.9152 2.31044 26.1709C2.74753 25.8761 3.5093 25.5277 3.6543 25.5561C3.70598 25.5663 3.59024 25.6386 3.3971 25.7169C1.87006 26.3357 0.8135 27.532 0.397672 29.1129C0.221013 29.7846 0.220728 30.8981 0.397046 31.5718C0.829507 33.2241 2.0254 34.6034 3.49546 35.1451C4.93786 35.6767 6.55242 35.4 8.13987 34.3492C8.39381 34.1811 8.61352 34.0556 8.62812 34.0703C8.68621 34.129 7.76851 34.7958 7.32183 35.0195C6.39757 35.4824 5.17427 35.6579 4.18819 35.469Z" fill="#FF6000"/>
<path d="M4.34961 21.9763C4.3496 20.1292 4.35726 19.3649 4.36663 20.2778C4.37597 21.1908 4.37597 22.7021 4.36665 23.6362C4.35731 24.5704 4.34963 23.8234 4.34962 21.9763H4.34961Z" fill="#FF6000"/>
<path d="M4.14355 21.9482C4.14355 18.936 4.15405 18.5358 4.23264 18.5662C4.31036 18.5963 4.32172 19.0318 4.32172 21.9827C4.32172 24.9489 4.31076 25.3647 4.23264 25.3647C4.1545 25.3647 4.14355 24.9451 4.14355 21.9482Z" fill="#FF6000"/>
<path d="M34.0118 35.5097C32.3628 35.2483 30.9337 34.2048 30.217 32.739C29.815 31.9169 29.6879 31.3669 29.6865 30.4441C29.6855 29.7508 29.7325 29.4313 29.9223 28.8393C30.4395 27.227 31.8133 25.9119 33.4181 25.4929L33.7799 25.3985V21.9408V18.4831L33.477 18.4043C31.8388 17.9781 30.4703 16.6998 29.9379 15.0981C29.7318 14.4782 29.6911 14.2049 29.6905 13.4392C29.6901 12.8009 29.7027 12.6672 29.8004 12.273C29.8611 12.0281 29.9397 11.761 29.975 11.6793L30.0393 11.5309L30.04 11.7005C30.0405 11.7938 30.0131 12.1946 29.9792 12.5911C29.89 13.6356 29.8968 14.3866 29.9991 14.7905C30.2132 15.6357 31.0283 16.8186 31.7992 17.4028C32.1991 17.7058 32.4835 17.8486 33.2283 18.1202L33.8849 18.3596V21.9345V25.5095L33.0661 25.8605C32.1932 26.2345 31.9375 26.3739 31.5261 26.6998C30.8162 27.2623 30.2775 28.1153 30.0184 29.0871C29.8671 29.6544 29.8284 30.6675 29.9357 31.2498C30.2762 33.0982 31.4319 34.4626 33.2006 35.1042C33.8286 35.3321 34.2504 35.3983 34.9122 35.373C35.736 35.3415 36.3631 35.1532 37.1604 34.6978C38.2388 34.0819 38.9201 33.26 39.2979 32.1192C39.9058 30.2837 39.4851 28.1817 38.2594 26.9291C37.7334 26.3916 37.3063 26.1434 36.247 25.7596L35.6276 25.5352V23.4273C35.6276 22.268 35.6401 20.661 35.6553 19.8562L35.683 18.393L36.5477 17.9577C37.4695 17.4935 37.785 17.2907 38.2106 16.8886C39.1438 16.0071 39.6343 14.8316 39.6323 13.4816C39.6309 12.4897 39.36 11.5996 38.8064 10.7676C38.5445 10.374 37.9176 9.75046 37.4979 9.46625C36.8648 9.03758 35.9239 8.61691 35.2917 8.47993L35.0187 8.42078L35.3783 8.41749C36.5112 8.40689 37.9548 9.24297 38.8162 10.4088C40.3075 12.4268 40.09 15.2778 38.308 17.0705C37.6986 17.6835 36.9374 18.1335 36.1146 18.367L35.7116 18.4814V21.9502C35.7116 24.993 35.7193 25.419 35.7741 25.419C35.9126 25.419 36.6784 25.6949 37.0134 25.8655C39.2975 27.0285 40.3721 29.7387 39.5097 32.1616C39.2598 32.8639 38.919 33.4133 38.3883 33.9693C37.6743 34.7174 36.9398 35.148 35.9252 35.4134C35.6065 35.4968 35.3914 35.5219 34.8928 35.5342C34.5463 35.5426 34.1499 35.5317 34.0118 35.5097L34.0118 35.5097Z" fill="#FF6000"/>
<path d="M49.8352 35.2948C49.8094 35.2625 49.7804 35.1064 49.7708 34.948L49.7533 34.6601L50.0326 34.6879C50.4002 34.7244 50.7176 34.6344 50.8974 34.4426C51.1546 34.1683 51.1919 34.2977 50.3006 32.3727C49.8526 31.4052 49.4858 30.5987 49.4854 30.5804C49.4849 30.562 49.6669 30.5525 49.8897 30.5592L50.2948 30.5713L50.8798 31.9071C51.2015 32.6418 51.4774 33.2562 51.493 33.2724C51.5085 33.2886 51.7683 32.6875 52.0702 31.9366L52.6191 30.5713L53.0255 30.5592C53.2491 30.5525 53.4319 30.5598 53.4319 30.5753C53.4319 30.6343 51.9863 33.9801 51.7911 34.3729C51.5664 34.8251 51.3765 35.0414 51.0628 35.2023C50.8896 35.2912 50.7777 35.3119 50.3693 35.3309C49.9842 35.3488 49.8725 35.3413 49.8352 35.2948L49.8352 35.2948Z" fill="#FF6000"/>
<path d="M55.8682 32.9249V30.5501H56.2251H56.582V31.5049V32.4597L57.7894 32.4484L58.9967 32.4372L59.008 31.4936L59.0193 30.5501H59.3754H59.7315V32.9249V35.2996H59.3746H59.0177V34.1971V33.0945H57.8025H56.5874L56.5742 34.1562C56.5632 35.0438 56.5507 35.2246 56.4981 35.2582C56.4634 35.2802 56.3075 35.2986 56.1516 35.299L55.8682 35.2996V32.9249Z" fill="#FF6000"/>
<path d="M62.7255 35.3313C62.7069 35.3022 62.6863 34.2145 62.6798 32.9143L62.668 30.5501H63.0263H63.3845V32.159C63.3845 33.044 63.3988 33.7769 63.4162 33.7877C63.4336 33.7986 64.0525 33.1201 64.7915 32.28C66.1692 30.7138 66.4088 30.4653 66.5416 30.4653C66.6146 30.4653 66.618 30.5733 66.618 32.8825V35.2996H66.2611H65.9041L65.903 33.6352L65.9019 31.9707L65.7454 32.1415C65.6594 32.2355 65.0079 32.9744 64.2977 33.7837C63.0526 35.2024 62.8013 35.4497 62.7254 35.3313H62.7255Z" fill="#FF6000"/>
</svg>
